<svg width="67" height="47" viewBox="0 0 67 47" fill="none" xmlns="http://www.w3.org/2000/svg">
<path fill-rule="evenodd" clip-rule="evenodd" d="M15.857 6.59215C17.597 6.49215 19.335 6.50015 21.075 6.50015C21.087 6.50015 29.892 6.50015 29.892 6.50015C31.666 6.50015 33.404 6.49215 35.143 6.59215C36.724 6.68215 38.264 6.87415 39.797 7.30315C43.024 8.20515 45.842 10.0892 47.879 12.7602C49.904 15.4142 51 18.6632 51 21.9992C51 25.3392 49.904 28.5862 47.879 31.2402C45.842 33.9102 43.024 35.7952 39.797 36.6972C38.264 37.1262 36.724 37.3172 35.143 37.4082C33.404 37.5082 31.666 37.4992 29.926 37.4992C29.914 37.4992 21.107 37.5002 21.107 37.5002C19.335 37.4992 17.597 37.5082 15.857 37.4082C14.277 37.3172 12.737 37.1262 11.204 36.6972C7.977 35.7952 5.159 33.9102 3.122 31.2402C1.097 28.5862 0 25.3392 0 22.0002C0 18.6632 1.097 15.4142 3.122 12.7602C5.159 10.0892 7.977 8.20515 11.204 7.30315C12.737 6.87415 14.277 6.68215 15.857 6.59215Z" fill="#34C759"/>
<g filter="url(#filter0_dd_11_189)">
<path fill-rule="evenodd" clip-rule="evenodd" d="M35.5 35.5C42.9558 35.5 49 29.4558 49 22C49 14.5442 42.9558 8.5 35.5 8.5C28.0442 8.5 22 14.5442 22 22C22 29.4558 28.0442 35.5 35.5 35.5Z" fill="white"/>
</g>
<defs>
<filter id="filter0_dd_11_189" x="14" y="3.5" width="43" height="43" filterUnits="userSpaceOnUse" color-interpolation-filters="sRGB">
<feFlood flood-opacity="0" result="BackgroundImageFix"/>
<feColorMatrix in="SourceAlpha" type="matrix" values="0 0 0 0 0 0 0 0 0 0 0 0 0 0 0 0 0 0 127 0" result="hardAlpha"/>
<feOffset dy="3"/>
<feGaussianBlur stdDeviation="0.5"/>
<feColorMatrix type="matrix" values="0 0 0 0 0 0 0 0 0 0 0 0 0 0 0 0 0 0 0.06 0"/>
<feBlend mode="normal" in2="BackgroundImageFix" result="effect1_dropShadow_11_189"/>
<feColorMatrix in="SourceAlpha" type="matrix" values="0 0 0 0 0 0 0 0 0 0 0 0 0 0 0 0 0 0 127 0" result="hardAlpha"/>
<feOffset dy="3"/>
<feGaussianBlur stdDeviation="4"/>
<feColorMatrix type="matrix" values="0 0 0 0 0 0 0 0 0 0 0 0 0 0 0 0 0 0 0.15 0"/>
<feBlend mode="normal" in2="effect1_dropShadow_11_189" result="effect2_dropShadow_11_189"/>
<feBlend mode="normal" in="SourceGraphic" in2="effect2_dropShadow_11_189" result="shape"/>
</filter>
</defs>
</svg>
